<svg width="58" height="58" fill="none" xmlns="http://www.w3.org/2000/svg"><rect width="58" height="58" rx="4" fill="#3077C6"/><path d="M2.5858 26.6094c-.0537-.0879-.1035-.2077-.1495-.3595a1.644 1.644 0 0 1-.069-.4793c0-.3116.0652-.5353.1955-.6711.138-.1358.3143-.2037.529-.2037h5.0139c.0537.0879.1035.2077.1495.3595s.069.3116.069.4793c0 .3116-.069.5353-.207.6711-.1303.1358-.3028.2037-.5175.2037H6.3232v5.5362c-.0843.024-.2185.048-.4025.0719a3.918 3.918 0 0 1-.529.036c-.1763 0-.3335-.016-.4714-.0479-.1304-.024-.2415-.0719-.3335-.1438-.092-.0719-.161-.1718-.207-.2996-.046-.1278-.069-.2956-.069-.5033v-4.6495h-1.725ZM10.6428 32.1816c-.0766.024-.1993.0479-.368.0719a3.4302 3.4302 0 0 1-.506.0359c-.1686 0-.322-.0119-.46-.0359-.1303-.024-.2414-.0719-.3334-.1438-.092-.0719-.1649-.1678-.2185-.2876-.046-.1278-.069-.2916-.069-.4913v-3.595c0-.1837.0306-.3395.092-.4673.069-.1358.1648-.2557.2875-.3595.1226-.1039.2721-.1957.4485-.2756a4.3043 4.3043 0 0 1 .5864-.2277 4.2051 4.2051 0 0 1 .644-.1438c.2224-.04.4447-.0599.667-.0599.368 0 .6593.0759.874.2277.2147.1438.322.3834.322.7189 0 .1119-.0153.2237-.046.3356a1.5933 1.5933 0 0 1-.115.2876c-.161 0-.3258.008-.4945.0239-.1687.016-.3335.04-.4945.0719a6.5947 6.5947 0 0 0-.46.1079c-.138.0319-.2568.0719-.3565.1198v4.0863ZM13.3698 24.752c0-.3036.0958-.5592.2875-.7669.1993-.2077.46-.3116.782-.3116s.5788.1039.7705.3116c.1993.2077.299.4633.299.7669 0 .3036-.0997.5592-.299.7669-.1917.2077-.4485.3116-.7705.3116-.322 0-.5827-.1039-.782-.3116-.1917-.2077-.2875-.4633-.2875-.7669Zm2.047 7.4296c-.0844.016-.2109.0359-.3795.0599a2.531 2.531 0 0 1-.4945.0479c-.1687 0-.322-.0119-.46-.0359-.1303-.024-.2415-.0719-.3335-.1438-.092-.0719-.1648-.1678-.2185-.2876-.046-.1278-.069-.2916-.069-.4913v-4.8772c.0843-.016.207-.0359.368-.0599a2.7173 2.7173 0 0 1 .506-.0479c.1686 0 .3181.012.4485.0359.138.024.253.0719.345.1438.092.0719.161.1718.207.2996.0536.1198.0805.2796.0805.4793v4.8772ZM19.2258 26.19c.46 0 .8855.0639 1.2765.1917.3986.1199.7398.3076 1.0234.5632.2837.2557.506.5792.667.9707.161.3834.2415.8428.2415 1.378 0 .5113-.069.9587-.207 1.3422-.138.3834-.3335.707-.5865.9706-.253.2556-.5596.4474-.9199.5752-.3527.1278-.7475.1917-1.1845.1917-.3297 0-.6363-.0519-.92-.1558v1.9893c-.0767.0239-.1993.0479-.368.0719a2.7792 2.7792 0 0 1-.5175.0479c-.1686 0-.322-.012-.46-.036-.1303-.0239-.2415-.0719-.3335-.1438-.092-.0719-.161-.1717-.207-.2995-.046-.1199-.069-.2797-.069-.4794V27.616c0-.2157.0422-.3915.1265-.5273.092-.1358.2147-.2596.368-.3714.2377-.1598.5329-.2876.8855-.3835.3527-.0959.7475-.1438 1.1845-.1438Zm.023 4.5776c.7896 0 1.1845-.4913 1.1845-1.474 0-.5112-.0997-.8907-.299-1.1384-.1917-.2476-.4715-.3714-.8395-.3714-.1457 0-.276.0199-.391.0599-.115.0319-.2147.0719-.299.1198v2.6363c.092.0479.1917.0879.299.1198.1073.032.2223.048.345.048ZM29.7706 32.1456c-.0843.024-.2185.048-.4025.0719a3.917 3.917 0 0 1-.529.036c-.1763 0-.3335-.016-.4714-.0479-.1304-.024-.2415-.0719-.3335-.1438-.092-.0719-.161-.1718-.207-.2996-.046-.1278-.069-.2956-.069-.5033v-1.8694h-2.208v2.7561c-.0843.024-.2185.048-.4025.0719a3.917 3.917 0 0 1-.529.036c-.1763 0-.3335-.016-.4715-.0479-.1303-.024-.2415-.0719-.3335-.1438-.092-.0719-.161-.1718-.207-.2996-.0459-.1278-.0689-.2956-.0689-.5033v-6.3271c.0843-.016.2184-.036.4024-.06a3.0992 3.0992 0 0 1 .529-.0479c.1764 0 .3297.016.46.0479.138.024.253.0719.345.1438.092.0719.161.1718.207.2996.046.1278.069.2956.069.5033v1.9173h2.208v-2.804c.0843-.016.2185-.036.4025-.06a3.098 3.098 0 0 1 .5289-.0479c.1764 0 .3297.016.46.0479.138.024.253.0719.345.1438.092.0719.161.1718.207.2996.046.1278.069.2956.069.5033v6.3271ZM36.899 29.2817c0 .4953-.0728.9386-.2185 1.3301-.1456.3835-.3526.707-.6209.9706-.2607.2637-.575.4634-.943.5992-.368.1358-.7782.2037-1.2305.2037-.4523 0-.8625-.0719-1.2305-.2157-.368-.1438-.6861-.3475-.9545-.6111-.2606-.2717-.4638-.5992-.6094-.9827-.1457-.3834-.2185-.8148-.2185-1.2941 0-.4714.0728-.8988.2185-1.2822.1456-.3835.3488-.7071.6094-.9707.2684-.2716.5865-.4793.9545-.6231.368-.1438.7782-.2157 1.2305-.2157.4523 0 .8625.0759 1.2305.2277.368.1438.6823.3515.943.6231.2683.2636.4753.5872.6209.9706.1457.3835.2185.8069.2185 1.2703Zm-4.0249 0c0 .4873.0882.8627.2645 1.1264.184.2556.437.3834.759.3834s.5673-.1318.736-.3954c.1763-.2636.2645-.6351.2645-1.1144 0-.4794-.0882-.8469-.2645-1.1025-.1763-.2636-.4255-.3954-.7475-.3954-.322 0-.5712.1318-.7475.3954-.1763.2556-.2645.6231-.2645 1.1025ZM37.8528 26.4536c.0767-.0239.1955-.0479.3565-.0719a3.6852 3.6852 0 0 1 .5175-.0359c.1686 0 .3181.012.4485.0359.138.024.253.0719.345.1438.092.0719.161.1718.207.2996.0536.1198.0805.2796.0805.4793v2.5764c0 .3276.0766.5632.23.707.1533.1358.3756.2037.6669.2037.1764 0 .3182-.0159.4255-.0479.115-.0319.2032-.0639.2645-.0959v-4.1941c.0767-.0239.1955-.0479.3565-.0719a3.6852 3.6852 0 0 1 .5175-.0359c.1687 0 .3182.012.4485.0359.138.024.253.0719.345.1438.092.0719.161.1718.207.2996.0537.1198.0805.2796.0805.4793v3.6429c0 .3995-.161.699-.483.8988-.2683.1757-.5903.3075-.966.3954-.368.0959-.7705.1438-1.2075.1438-.4139 0-.7973-.0479-1.1499-.1438-.345-.0959-.644-.2437-.897-.4434-.253-.1997-.4485-.4553-.5865-.7669-.138-.3195-.207-.703-.207-1.1504v-3.4272ZM49.2609 30.456c0 .6072-.2185 1.0825-.6555 1.426-.437.3435-1.0809.5153-1.9319.5153-.322 0-.621-.024-.897-.0719-.276-.0479-.5137-.1198-.713-.2157-.1916-.1039-.345-.2317-.46-.3835-.1073-.1518-.161-.3315-.161-.5392 0-.1917.0384-.3515.115-.4793.0767-.1359.1687-.2477.276-.3356.2223.1279.4753.2437.759.3475.2913.0959.6248.1438 1.0005.1438.2376 0 .4178-.0359.5405-.1078.1303-.0719.1955-.1678.1955-.2876 0-.1118-.046-.1997-.138-.2636-.092-.0639-.2454-.1159-.46-.1558l-.345-.0719c-.667-.1358-1.1653-.3475-1.495-.6351-.322-.2956-.483-.715-.483-1.2583 0-.2955.0614-.5632.184-.8028.1227-.2397.2952-.4394.5175-.5992.2223-.1598.4868-.2836.7935-.3715.3143-.0879.6593-.1318 1.035-.1318.2836 0 .5481.024.7935.0719.253.04.4715.1039.6554.1917.184.0879.3297.2038.437.3476.1074.1358.161.2995.161.4913 0 .1837-.0345.3435-.1035.4793-.0613.1278-.1418.2357-.2415.3235-.0613-.0399-.1533-.0798-.276-.1198a2.6849 2.6849 0 0 0-.4024-.1198 4.0712 4.0712 0 0 0-.4485-.0959c-.1457-.024-.2799-.0359-.4025-.0359-.253 0-.4485.0319-.5865.0958-.138.0559-.207.1478-.207.2756 0 .0879.0383.1598.115.2157.0767.056.2223.1079.437.1558l.3565.0839c.736.1758 1.2573.4194 1.5639.731.3144.3035.4715.699.4715 1.1863ZM53.2177 32.3853c-.4524 0-.874-.0639-1.265-.1917-.3833-.1358-.7207-.3356-1.012-.5992-.2837-.2636-.5098-.5952-.6785-.9946-.161-.3994-.2415-.8668-.2415-1.402 0-.5273.0805-.9787.2415-1.3541.1687-.3835.3872-.6951.6555-.9347a2.4601 2.4601 0 0 1 .92-.5393 3.2034 3.2034 0 0 1 1.058-.1797c.4063 0 .7743.0639 1.1039.1917.3374.1278.6249.3036.8625.5273.2454.2237.4332.4913.5635.8029.138.3115.207.651.207 1.0185 0 .2717-.0728.4794-.2185.6232-.1457.1438-.3488.2356-.6095.2756l-2.8404.4433c.0843.2637.2568.4634.5175.5992.2606.1278.5596.1917.897.1917.3143 0 .6094-.0399.8854-.1198.2837-.0879.5137-.1877.69-.2996.1227.0799.2262.1918.3105.3356.0843.1438.1265.2955.1265.4553 0 .3595-.161.6271-.483.8029-.2453.1358-.5213.2277-.828.2756-.3066.0479-.5941.0719-.8624.0719Zm-.322-4.7094c-.184 0-.345.032-.483.0959-.1304.0639-.2377.1478-.322.2516a1.031 1.031 0 0 0-.1955.3356 1.509 1.509 0 0 0-.069.3714l1.9664-.3355c-.023-.1598-.1073-.3195-.253-.4793-.1456-.1598-.3603-.2397-.6439-.2397Z" fill="#fff"/></svg>