<svg width="17" height="13" fill="none" xmlns="http://www.w3.org/2000/svg"><g clip-path="url(#a)"><path d="M0 .957h17v11.3334H0V.957Z" fill="#fff"/><path d="M0 .957h17v.8716H0V.957Zm0 1.7431h17v.8716H0V2.7Zm0 1.743h17v.8716H0v-.8715Zm0 1.7432h17v.8715H0v-.8715Zm0 1.7464h17v.8715H0v-.8715Zm0 1.743h17v.8716H0v-.8716Zm0 1.7431h17v.8716H0v-.8716Z" fill="#D80027"/><path d="M0 .957h8.5v6.1008H0V.957Z" fill="#2E52B2"/><path d="m1.584 5.5598-.1326-.4242-.1458.4242H.8682l.3545.2552-.1325.4241.3612-.2618.3513.2618-.1359-.4241.3612-.2552h-.444Zm1.8657 0-.136-.4242-.1391.4242h-.4374l.3546.2552-.1326.4241.3546-.2618.3579.2618-.1326-.4241.3546-.2552h-.444Zm1.8723 0-.1425-.4242-.1326.4242h-.4474l.3646.2552-.1392.4241.3546-.2618.3645.2618-.1392-.4241.3546-.2552H5.322Zm1.8623 0-.1325-.4242-.1392.4242H6.472l.3579.2552-.1326.4241.3546-.2618.3579.2618-.1425-.4241.3645-.2552h-.4474ZM3.3138 3.4522l-.1392.4242h-.4374l.3546.2618-.1326.4175.3546-.2585.3579.2585-.1326-.4175.3546-.2618h-.444l-.136-.4242Zm-1.8624 0-.1458.4242H.8682l.3545.2618-.1325.4175.3612-.2585.3513.2585-.1359-.4175.3612-.2618h-.444l-.1326-.4242Zm3.728 0-.1325.4242h-.4474l.3646.2618-.1392.4175.3546-.2585.3645.2585-.1392-.4175.3546-.2618H5.322l-.1425-.4242Zm1.8724 0-.1392.4242H6.472l.3579.2618-.1326.4175.3546-.2585.3579.2585-.1425-.4175.3645-.2618h-.4474l-.1325-.4242ZM1.4514 1.7754l-.1458.4175H.8682l.3545.2618-.1325.4209.3612-.2618.3513.2618-.1359-.4209.3612-.2618h-.444l-.1326-.4175Zm1.8624 0-.1392.4175h-.4374l.3546.2618-.1326.4209.3546-.2618.3579.2618-.1326-.4209.3546-.2618h-.444l-.136-.4175Zm1.8657 0-.1326.4175h-.4474l.3646.2618-.1392.4209.3546-.2618.3645.2618-.1392-.4209.3546-.2618H5.322l-.1425-.4175Zm1.8723 0-.1392.4175H6.472l.3579.2618-.1326.4209.3546-.2618.3579.2618-.1425-.4209.3645-.2618h-.4474l-.1325-.4175Z" fill="#fff"/></g><defs><clipPath id="a"><path fill="#fff" transform="translate(0 .957)" d="M0 0h17v11.3333H0z"/></clipPath></defs></svg>